<?xml version="1.0" encoding="UTF-8"?>
<svg width="25px" height="30px" viewBox="0 0 25 30" version="1.1" xmlns="http://www.w3.org/2000/svg" xmlns:xlink="http://www.w3.org/1999/xlink">
    <title>2333386-code-linux-os_85584</title>
    <defs>
        <filter id="filter-1">
            <feColorMatrix in="SourceGraphic" type="matrix" values="0 0 0 0 1.000000 0 0 0 0 1.000000 0 0 0 0 1.000000 0 0 0 1.000000 0"></feColorMatrix>
        </filter>
    </defs>
    <g id="Page-1" stroke="none" stroke-width="1" fill="none" fill-rule="evenodd">
        <g filter="url(#filter-1)" id="2333386-code-linux-os_85584">
            <g transform="translate(-0.000000, 0.000000)">
                <path d="M22.440184,20.8764471 C23.086184,21.1534471 23.354184,21.6924471 23.474184,22.3144471 C23.603184,22.9784471 23.801184,23.5994471 24.303184,24.0854471 C24.370184,24.1494471 24.418184,24.2354471 24.470184,24.3154471 C25.088184,25.2544471 24.947184,25.9174471 23.980184,26.4774471 C23.547184,26.7294471 23.089184,26.9384471 22.642184,27.1634471 C21.968184,27.5014471 21.377184,27.9344471 20.877184,28.5114471 C20.241184,29.2414471 19.464184,29.7674471 18.485184,29.9504471 C17.314184,30.1694471 16.285184,29.6574471 15.785184,28.5634471 C15.678184,28.3294471 15.557184,28.2584471 15.305184,28.2454471 C14.684184,28.2084471 14.063184,28.1454471 13.447184,28.0544471 C12.362184,27.8944471 11.320184,28.1614471 10.263184,28.3164471 C9.84518396,28.3774471 9.55418396,28.5154471 9.27718396,28.8714471 C8.73118396,29.5724471 7.90518396,29.7524471 7.07318396,29.6424471 C6.39818396,29.5524471 5.70518396,29.3824471 5.09318396,29.0934471 C4.20118396,28.6754471 3.27818396,28.4824471 2.31818396,28.3784471 C1.95518396,28.3394471 1.59018396,28.2904471 1.23418396,28.2144471 C0.271183956,28.0054471 -0.185816044,27.3804471 0.0701839563,26.4354471 C0.281183956,25.6564471 0.310183956,24.9144471 0.210183956,24.1194471 C0.0671839563,22.9844471 0.411183956,22.4514471 1.53818396,22.1314471 C2.44018396,21.8754471 2.78318396,21.0944471 3.33518396,20.5044471 C3.37818396,20.4574471 3.37018396,20.3484471 3.36318396,20.2704471 C3.20618396,18.7294471 3.66618396,17.3234471 4.31218396,15.9634471 C5.02018396,14.4734471 5.96918396,13.1384471 6.99818396,11.8554471 C8.11718396,10.4604471 8.57018396,8.85544715 8.45618396,7.07844715 C8.37118396,5.74044715 8.25718396,4.40044715 8.57918396,3.07244715 C8.99918396,1.33244715 10.195184,0.228447146 11.973184,0.060447146 C12.732184,-0.011552854 13.529184,-0.043552854 14.268184,0.105447146 C15.995184,0.451447146 16.813184,1.71844715 17.199184,3.32844715 C17.502184,4.59244715 17.541184,5.88144715 17.485184,7.16844715 C17.430184,8.41044715 17.716184,9.53344715 18.464184,10.5274471 C19.002184,11.2424471 19.592184,11.9184471 20.096184,12.6564471 C20.728184,13.5844471 21.370184,14.5164471 21.871184,15.5164471 C22.705184,17.1794471 23.023184,18.8394471 22.440184,20.8764471 Z M8.75118396,24.6324471 C9.18618396,25.3644471 9.68318396,25.9564471 10.507184,26.2394471 C12.344184,26.8724471 14.017184,26.4894471 15.603184,25.4994471 C15.780184,25.3904471 15.963184,25.1674471 15.999184,24.9724471 C16.167184,24.0294471 16.286184,23.0764471 16.421184,22.1244471 C16.547184,21.2314471 16.729184,20.3704471 17.644184,19.9054471 C17.723184,19.8644471 17.762184,19.7194471 17.793184,19.6164471 C17.961184,19.0674471 18.231184,18.8034471 18.784184,18.8894471 C19.888184,19.0614471 20.984184,19.3074471 21.361184,20.6534471 C21.587184,20.2784471 21.473184,19.9564471 21.237184,19.7154471 C20.969184,19.4404471 20.657184,19.1764471 20.314184,19.0144471 C19.878184,18.8114471 19.723184,18.6124471 19.763184,18.0734471 C19.900184,16.2314471 19.042184,14.7664471 17.812184,13.4804471 C17.786184,13.4534471 17.738184,13.4454471 17.700184,13.4294471 C18.950184,14.9084471 19.777184,16.4814471 19.193184,18.4834471 C18.537184,18.4344471 18.528184,18.4364471 18.469184,18.1494471 C18.223184,16.9544471 17.736184,15.8544471 17.200184,14.7664471 C16.755184,13.8574471 16.360184,12.9194471 15.989184,11.9784471 C15.664184,11.1544471 15.403184,10.3004471 15.121184,9.48244715 C14.813184,9.68544715 14.524184,9.90044715 14.213184,10.0784471 C13.819184,10.3034471 13.402184,10.4844471 13.008184,10.7094471 C12.011184,11.2754471 11.201184,11.1994471 10.329184,10.4494471 C10.090184,10.2424471 9.82518396,10.0664471 9.51718396,9.83644715 C9.36818396,11.4144471 8.83718396,12.7754471 8.24318396,14.1184471 C7.97418396,14.7254471 7.70118396,15.3294471 7.42018396,15.9294471 C6.88818396,17.0664471 6.60318396,18.2654471 6.49318396,19.6014471 C6.01418396,18.9084471 5.88118396,18.2244471 5.92818396,17.4964471 C5.98818396,16.5554471 6.32918396,15.7034471 6.76418396,14.8814471 C6.92918396,14.5684471 7.07518396,14.2484471 7.23118396,13.9294471 C7.20118396,13.9154471 7.17018396,13.9024471 7.14018396,13.8884471 C6.45118396,14.9764471 5.82818396,16.0994471 5.57818396,17.3804471 C5.25218396,19.0484471 5.80618396,20.1464471 7.25718396,21.0074471 C8.16818396,21.5464471 9.00018396,22.2064471 9.49018396,23.1874471 C9.88518396,23.9724471 9.63018396,24.4604471 8.75118396,24.6324471 Z M6.83318396,28.7124471 C7.67618396,28.6494471 8.28018396,28.5364471 8.62618396,27.9194471 C8.97218396,27.3044471 8.85718396,26.7064471 8.48618396,26.1464471 C8.25218396,25.7914471 7.97918396,25.4604471 7.74318396,25.1054471 C7.30118396,24.4374471 6.86818396,23.7614471 6.44118396,23.0844471 C6.13318396,22.5944471 5.88218396,22.0644471 5.53418396,21.6074471 C5.01718396,20.9274471 4.12318396,20.6174471 3.44218396,21.6794471 C3.07218396,22.2574471 2.58218396,22.6224471 1.92218396,22.8224471 C1.23618396,23.0294471 1.04918396,23.4354471 1.10618396,24.1584471 C1.14818396,24.7054471 1.23018396,25.2874471 1.09818396,25.8034471 C0.793183956,26.9964471 0.996183956,27.3774471 2.21918396,27.5024471 C3.32918396,27.6174471 4.41218396,27.7934471 5.43118396,28.3164471 C5.91318396,28.5624471 6.49118396,28.6204471 6.83318396,28.7124471 Z M18.111184,20.9584471 C17.948184,21.1654471 17.741184,21.3414471 17.652184,21.5654471 C17.511184,21.9134471 17.396184,22.2924471 17.366184,22.6634471 C17.270184,23.8194471 17.158184,24.9664471 16.766184,26.0674471 C16.686184,26.2924471 16.640184,26.5284471 16.597184,26.7624471 C16.463184,27.4814471 16.534184,28.1514471 17.146184,28.6494471 C17.749184,29.1434471 18.440184,29.1594471 19.099184,28.8404471 C19.583184,28.6084471 20.073184,28.3034471 20.434184,27.9124471 C21.074184,27.2194471 21.818184,26.7174471 22.659184,26.3244471 C22.982184,26.1744471 23.301184,26.0044471 23.595184,25.8044471 C23.934184,25.5744471 24.000184,25.3024471 23.820184,24.9314471 C23.701184,24.6894471 23.554184,24.4474471 23.372184,24.2474471 C23.054184,23.8974471 22.889184,23.4894471 22.791184,23.0404471 C22.729184,22.7614471 22.664184,22.4774471 22.547184,22.2204471 C22.269184,21.5994471 21.466184,21.4624471 20.919184,21.8614471 C20.571184,22.1154471 20.166184,22.3204471 19.757184,22.4574471 C19.237184,22.6334471 18.779184,22.4284471 18.510184,21.9514471 C18.349184,21.6674471 18.261184,21.3434471 18.111184,20.9584471 Z M11.829184,10.4784471 C11.984184,10.4374471 12.260184,10.4104471 12.496184,10.2964471 C13.108184,10.0094471 13.704184,9.68744715 14.302184,9.37044715 C14.414184,9.31144715 14.516184,9.22944715 14.612184,9.14544715 C15.254184,8.57344715 15.151184,7.93844715 14.368184,7.59244715 C13.807184,7.34644715 13.249184,7.09644715 12.694184,6.83644715 C11.964184,6.49844715 11.258184,6.47944715 10.595184,6.98644715 C10.168184,7.31244715 9.75118396,7.65244715 9.33518396,7.99244715 C9.08618396,8.19344715 9.02718396,8.44944715 9.15418396,8.74844715 C9.35518396,9.21944715 10.967184,10.3964471 11.488184,10.4494471 C11.563184,10.4594471 11.639184,10.4634471 11.829184,10.4784471 Z M13.986184,7.10944715 C14.134184,7.17344715 14.250184,7.21344715 14.352184,7.27344715 C14.689184,7.47444715 14.916184,7.33944715 14.978184,7.00544715 C15.069184,6.50744715 15.191184,5.98744715 15.126184,5.49744715 C15.019184,4.67944715 14.407184,4.12244715 13.768184,4.08944715 C13.000184,4.05244715 12.361184,4.68744715 12.222184,5.62044715 C12.115184,6.33744715 12.134184,6.36444715 12.833184,6.52844715 C12.908184,6.22944715 12.937184,5.90744715 13.076184,5.64344715 C13.166184,5.47144715 13.419184,5.28044715 13.593184,5.28644715 C13.767184,5.29044715 14.002184,5.49744715 14.091184,5.67544715 C14.325184,6.14144715 14.246184,6.62144715 13.986184,7.10944715 Z M18.674184,20.4584471 C18.698184,20.8584471 18.783184,21.2984471 19.218184,21.5034471 C19.631184,21.7004471 20.002184,21.4804471 20.338184,21.2354471 C20.421184,21.1744471 20.498184,21.1004471 20.565184,21.0224471 C20.804184,20.7474471 20.801184,20.4184471 20.501184,20.2114471 C20.222184,20.0184471 19.906184,19.8544471 19.584184,19.7464471 C18.975184,19.5444471 18.670184,19.7864471 18.674184,20.4584471 Z M10.580184,6.64644715 C10.780184,6.48844715 11.091184,6.36344715 11.109184,6.20344715 C11.177184,5.60944715 11.023184,5.04344715 10.562184,4.61544715 C10.159184,4.24244715 9.67818396,4.29944715 9.32918396,4.73644715 C8.76818396,5.43544715 8.85918396,6.78344715 9.52518396,7.43944715 C9.63818396,7.35544715 9.75418396,7.26944715 9.87918396,7.17544715 C9.54918396,6.81244715 9.48318396,6.39644715 9.58118396,5.97644715 C9.62318396,5.79844715 9.82318396,5.66044715 9.95118396,5.50344715 C10.096184,5.62644715 10.290184,5.72444715 10.372184,5.88044715 C10.481184,6.08844715 10.503184,6.34044715 10.580184,6.64644715 Z" id="Shape" fill="#000000" fill-rule="nonzero"></path>
                <path d="M10.210184,10.6954471 C10.293184,10.7654471 10.377184,10.8324471 10.457184,10.9064471 C11.245184,11.6364471 11.862184,11.7224471 12.812184,11.2204471 C13.086184,11.0754471 13.349184,10.9074471 13.623184,10.7594471 C13.724184,10.7064471 13.841184,10.6814471 13.966184,10.6894471 C13.185184,11.0994471 12.514184,11.7894471 11.523184,11.6524471 C10.931184,11.5704471 10.525184,11.1914471 10.138184,10.7914471 C10.162184,10.7604471 10.186184,10.7284471 10.210184,10.6954471 Z" id="Path" fill="#000000" fill-rule="nonzero"></path>
            </g>
        </g>
    </g>
</svg>